<?xml version="1.0" standalone="no"?><!DOCTYPE svg PUBLIC "-//W3C//DTD SVG 1.1//EN" "http://www.w3.org/Graphics/SVG/1.1/DTD/svg11.dtd"><svg t="1688037804066" class="icon" viewBox="0 0 1304 1024" version="1.1" xmlns="http://www.w3.org/2000/svg" p-id="6857" xmlns:xlink="http://www.w3.org/1999/xlink" width="254.6875" height="200"><path d="M726.2 501.4c0.6 0 1.4 0 2-0.2 0.6-0.2 1.2-0.4 1.8-0.8 0.6-0.4 1-0.8 1.6-1.4 0.4-0.6 0.8-1 1-1.6 0.2-0.6 0.4-1.2 0.6-2v-2l-0.6-1.8c-0.4-0.6-0.8-1.2-1.2-1.6L594 355.2c-0.4-0.4-1-0.8-1.6-1.2-0.6-0.4-1.2-0.6-2-0.6-0.6-0.2-1.4-0.2-2-0.2-0.6 0-1.4 0.2-2 0.4-0.6 0.2-1.2 0.6-1.8 1-0.6 0.4-1 1-1.4 1.4-0.4 0.6-0.6 1.2-0.8 1.8s-0.4 1.2-0.4 2v121.2c0 1.4 0.2 2.6 0.4 4s0.6 2.6 1.2 3.8c0.6 1.2 1.2 2.4 2 3.6 0.8 1.2 1.6 2.2 2.6 3 1 1 2 1.8 3.2 2.6 1.2 0.8 2.4 1.4 3.6 1.8 1.2 0.6 2.6 0.8 4 1.2 1.4 0.2 2.8 0.4 4 0.4h123.2z" p-id="6858" fill="#1296db"></path><path d="M855 285h123.2c0.6 0 1.4 0 2-0.2 0.6-0.2 1.2-0.4 1.8-0.8 0.6-0.4 1-0.8 1.6-1.4 0.4-0.6 0.8-1 1-1.6 0.2-0.6 0.4-1.2 0.6-2v-2l-0.6-1.8c-0.4-0.6-0.8-1.2-1.2-1.6L846 138.6c-0.4-0.4-1-0.8-1.6-1.2-0.6-0.4-1.2-0.6-2-0.6-0.6-0.2-1.4-0.2-2-0.2-0.6 0-1.4 0.2-2 0.4-0.6 0.2-1.2 0.6-1.8 1-0.6 0.4-1 1-1.4 1.4-0.4 0.6-0.6 1.2-0.8 1.8-0.2 0.6-0.4 1.2-0.4 2v121.2c0 1.4 0.2 2.6 0.4 4s0.6 2.6 1.2 3.8c0.6 1.2 1.2 2.4 2 3.6 0.8 1.2 1.6 2.2 2.6 3 1 1 2 1.8 3.2 2.6 1.2 0.8 2.4 1.4 3.6 1.8 1.2 0.6 2.6 0.8 4 1.2 1.2 0.4 2.6 0.6 4 0.6zM548.8 533.6c-3.6-3.4-6.8-7.2-9.6-11.2-2.8-4-5.2-8.4-7.2-12.8s-3.4-9.2-4.4-14c-1-4.8-1.6-9.6-1.6-14.4v-155.6h-126c-1.8 0-3.6 0-5.4 0.2-1.8 0-3.6 0.2-5.4 0.4l-5.4 0.6c-1.8 0.2-3.6 0.6-5.4 1l-5.4 1.2c-1.8 0.4-3.6 1-5.2 1.4-1.8 0.6-3.4 1-5.2 1.6-1.8 0.6-3.4 1.2-5.2 2-1.6 0.6-3.4 1.4-5 2.2-1.6 0.8-3.2 1.6-5 2.4-1.6 0.8-3.2 1.8-4.8 2.6-1.6 1-3.2 1.8-4.6 2.8-1.6 1-3 2-4.4 3s-3 2.2-4.4 3.2c-1.4 1.2-2.8 2.2-4.2 3.4-1.4 1.2-2.6 2.4-4 3.6s-2.6 2.6-3.8 3.8c-1.2 1.4-2.4 2.6-3.6 4-1.2 1.4-2.2 2.8-3.4 4.2-1 1.4-2.2 2.8-3.2 4.4-1 1.4-2 3-3 4.4-1 1.6-1.8 3-2.8 4.6l-2.4 4.8c-0.8 1.6-1.6 3.2-2.2 4.8-0.8 1.6-1.4 3.2-2 5-0.6 1.6-1.2 3.4-1.8 5-0.6 1.6-1 3.4-1.4 5.2-0.4 1.8-0.8 3.4-1.2 5.2-0.4 1.8-0.6 3.4-1 5.2-0.2 1.8-0.6 3.6-0.6 5.2-0.2 1.8-0.4 3.6-0.4 5.2 0 1.8-0.2 3.6-0.2 5.4v378.8c0 1.8 0 3.6 0.2 5.4 0 1.8 0.2 3.6 0.4 5.2 0.2 1.8 0.4 3.6 0.6 5.2 0.2 1.8 0.6 3.4 1 5.2 0.4 1.8 0.8 3.4 1.2 5.2 0.4 1.8 1 3.4 1.4 5.2 0.6 1.6 1.2 3.4 1.8 5 0.6 1.6 1.2 3.4 2 5s1.4 3.2 2.2 4.8l2.4 4.8c0.8 1.6 1.8 3.2 2.8 4.6 1 1.6 2 3 3 4.4 1 1.4 2 3 3.2 4.4 1 1.4 2.2 2.8 3.4 4.2 1.2 1.4 2.4 2.8 3.6 4 1.2 1.4 2.4 2.6 3.8 3.8s2.6 2.4 4 3.6c1.4 1.2 2.8 2.4 4.2 3.4 1.4 1.2 2.8 2.2 4.4 3.2 1.4 1 3 2 4.4 3 1.6 1 3 2 4.6 2.8 1.6 1 3.2 1.8 4.8 2.6 1.6 0.8 3.2 1.6 5 2.4 1.6 0.8 3.4 1.4 5 2.2 1.6 0.6 3.4 1.4 5.2 2 1.8 0.6 3.4 1.2 5.2 1.6 1.8 0.6 3.6 1 5.2 1.4l5.4 1.2c1.8 0.4 3.6 0.6 5.4 1l5.4 0.6c1.8 0.2 3.6 0.4 5.4 0.4 1.8 0 3.6 0.2 5.4 0.2h252c1.8 0 3.6 0 5.4-0.2 1.8 0 3.6-0.2 5.4-0.4l5.4-0.6c1.8-0.2 3.6-0.6 5.4-1l5.4-1.2c1.8-0.4 3.6-1 5.2-1.4 1.8-0.6 3.4-1 5.2-1.6 1.8-0.6 3.4-1.2 5.2-2 1.6-0.6 3.4-1.4 5-2.2 1.6-0.8 3.2-1.6 5-2.4 1.6-0.8 3.2-1.8 4.8-2.6 1.6-1 3.2-1.8 4.6-2.8 1.6-1 3-2 4.4-3 1.4-1 3-2.2 4.4-3.2 1.4-1.2 2.8-2.2 4.2-3.4 1.4-1.2 2.6-2.4 4-3.6l3.8-3.8c1.2-1.4 2.4-2.6 3.6-4 1.2-1.4 2.2-2.8 3.4-4.2 1-1.4 2.2-2.8 3.2-4.4 1-1.4 2-3 3-4.4 1-1.6 1.8-3 2.8-4.6l2.4-4.8c0.8-1.6 1.6-3.2 2.2-4.8 0.8-1.6 1.4-3.2 2-5 0.6-1.6 1.2-3.4 1.8-5s1-3.4 1.4-5.2c0.4-1.8 0.8-3.4 1.2-5.2 0.4-1.8 0.6-3.4 1-5.2s0.4-3.6 0.6-5.2c0.2-1.8 0.4-3.6 0.4-5.2 0-1.8 0.2-3.6 0.2-5.4V555.6h-161c-5 0-10-0.4-15-1.4-5-1-9.8-2.4-14.4-4.2-4.6-1.8-9-4.2-13.2-7-4.2-2.8-8-6-11.6-9.4z" p-id="6859" fill="#1296db"></path><path d="M855 339c-2.6 0-5-0.2-7.6-0.4-2.6-0.2-5-0.6-7.4-1.2-2.4-0.4-4.8-1-7.4-1.8-2.4-0.8-4.8-1.6-7-2.4-2.4-1-4.6-2-6.8-3.2-2.2-1.2-4.4-2.4-6.4-3.8s-4.2-2.8-6-4.4c-2-1.6-3.8-3.2-5.6-4.8-1.8-1.8-3.4-3.6-5-5.4-1.6-1.8-3-3.8-4.6-5.8-1.4-2-2.6-4.2-3.8-6.2-1.2-2.2-2.2-4.4-3.2-6.6-1-2.2-1.8-4.6-2.6-6.8-0.8-2.4-1.4-4.6-1.8-7-0.6-2.4-0.8-4.8-1.2-7.2-0.2-2.4-0.4-4.8-0.4-7.2V109h-189c-3.4 0-6.8 0.2-10.2 0.4-3.4 0.4-6.8 0.8-10.2 1.4-3.4 0.6-6.8 1.4-10 2.4s-6.6 2-9.6 3.4c-3.2 1.2-6.2 2.6-9.4 4.2-3 1.6-6 3.2-8.8 5.2-2.8 1.8-5.6 3.8-8.2 6-2.6 2.2-5.2 4.4-7.6 6.6-2.4 2.4-4.8 4.8-7 7.4-2.2 2.6-4.2 5.2-6.2 8s-3.6 5.6-5.2 8.6-3 6-4.4 9c-1.4 3-2.4 6.2-3.4 9.4s-1.8 6.4-2.6 9.6c-0.6 3.2-1.2 6.6-1.6 9.8-0.4 3.4-0.6 6.6-0.6 10v60.8h73.6c4.8 0 9.4 0.4 14 1.4 4.6 1 9 2.2 13.4 4 4.4 1.8 8.4 4 12.4 6.4 3.8 2.6 7.4 5.4 10.8 8.6l191 187.8c3.2 3.2 6.2 6.8 8.8 10.6 2.6 3.8 4.8 7.8 6.6 12 1.8 4.2 3.2 8.6 4 13 0.8 4.4 1.4 9 1.4 13.6v229.8h92.8c56.8 0 103.2-45.6 103.2-101.4v-318h-161.2z" p-id="6860" fill="#1296db"></path></svg>